#N canvas 363 23 1014 746 10;
#X msg 88 205 rewind;
#X obj 144 432 print done;
#X obj 88 381 textfile;
#X msg 163 176 bang;
#X obj 154 474 print list;
#X msg 149 355 print;
#X text 203 358 debugging printout;
#X obj 536 533 tabplay~ sound1;
#X obj 536 471 bng 15 250 50 0 empty empty empty 17 7 0 10 -262144
-1 -1;
#N canvas 423 23 1017 812 (subpatch) 0;
#X obj 88 701 soundfiler;
#N canvas 0 22 450 300 (subpatch) 0;
#X array sound1 19536 float 2;
#X coords 0 1 19536 -1 200 140 1;
#X restore 457 645 graph;
#X text 158 702 loads sound samples into an array;
#X text 298 599 the -resize flag resizes the array to fit the sound
file (90 seconds max);
#X msg 88 248 read -resize sub/they.wav sound1;
#X obj 88 106 inlet;
#X obj 88 197 bng 15 250 50 0 empty empty empty 17 7 0 10 -262144 -1
-1;
#X obj 88 150 match they;
#X obj 160 197 bng 15 250 50 0 empty empty empty 17 7 0 10 -262144
-1 -1;
#X obj 160 150 match wont;
#X msg 160 267 read -resize sub/wont.wav sound1;
#X obj 233 197 bng 15 250 50 0 empty empty empty 17 7 0 10 -262144
-1 -1;
#X obj 233 150 match see;
#X msg 233 285 read -resize sub/see.wav sound1;
#X obj 299 196 bng 15 250 50 0 empty empty empty 17 7 0 10 -262144
-1 -1;
#X obj 371 196 bng 15 250 50 0 empty empty empty 17 7 0 10 -262144
-1 -1;
#X obj 444 196 bng 15 250 50 0 empty empty empty 17 7 0 10 -262144
-1 -1;
#X obj 299 149 match us;
#X obj 371 149 match from;
#X obj 444 149 match here;
#X msg 299 304 read -resize sub/us.wav sound1;
#X msg 371 323 read -resize sub/from.wav sound1;
#X msg 444 341 read -resize sub/here.wav sound1;
#X connect 4 0 0 0;
#X connect 5 0 7 0;
#X connect 5 0 9 0;
#X connect 5 0 12 0;
#X connect 5 0 17 0;
#X connect 5 0 18 0;
#X connect 5 0 19 0;
#X connect 6 0 4 0;
#X connect 7 0 6 0;
#X connect 8 0 10 0;
#X connect 9 0 8 0;
#X connect 10 0 0 0;
#X connect 11 0 13 0;
#X connect 12 0 11 0;
#X connect 13 0 0 0;
#X connect 14 0 20 0;
#X connect 15 0 21 0;
#X connect 16 0 22 0;
#X connect 17 0 14 0;
#X connect 18 0 15 0;
#X connect 19 0 16 0;
#X connect 20 0 0 0;
#X connect 21 0 0 0;
#X connect 22 0 0 0;
#X restore 88 603 pd;
#X obj 536 501 delay 100;
#X obj 136 40 random 6;
#X obj 136 65 sel 0;
#X obj 88 81 bng 15 250 50 0 empty empty empty 17 7 0 10 -262144 -1
-1;
#X obj 163 148 bng 15 250 50 0 empty empty empty 17 7 0 10 -262144
-1 -1;
#X obj 291 132 delay 1;
#N canvas 0 23 1370 792 (subpatch) 0;
#X obj 498 46 freeverb~;
#X msg 1043 101 roomsize \$1;
#X msg 968 101 damping \$1;
#X obj 1043 -7 random 100;
#X obj 1043 15 / 100;
#X obj 1043 -122 bng 15 250 50 0 empty empty empty 17 7 0 10 -262144
-1 -1;
#X msg 1043 36 \$1 1000;
#X obj 1043 58 line;
#X obj 968 -7 random 100;
#X obj 968 15 / 100;
#X msg 968 36 \$1 1000;
#X obj 968 58 line;
#X msg 1153 101 wet 1;
#X obj 1276 85 loadbang;
#X msg 1202 101 dry 0;
#X obj 767 137 metro 1000;
#X obj 498 76 freeverb~;
#X obj 767 71 loadbang;
#X obj 767 101 tgl 15 0 empty empty empty 17 7 0 10 -262144 -1 -1 1
1;
#X obj 289 713 outlet~;
#N canvas 0 23 807 682 p-shft 0;
#X msg 314 320 transpose \$1;
#X floatatom 314 301 5 0 0 0 - - -, f 5;
#X floatatom 397 300 5 0 0 0 - - -, f 5;
#X msg 397 320 window \$1;
#N canvas 0 23 883 681 p-shift 0;
#X obj 22 583 outlet~;
#X obj 32 27 inlet~;
#X obj 85 432 *~;
#X obj 208 369 line~;
#X obj 208 343 pack 0 200;
#X obj 22 217 exp;
#X obj 22 333 /;
#X obj 149 263 * 0.001;
#X obj 317 439 line~;
#X obj 317 414 pack 0 200;
#X obj 85 458 +~;
#X obj 22 484 cos~;
#X obj 22 511 *~;
#X obj 22 540 +~;
#X obj 109 391 wrap~;
#X obj 254 434 *~;
#X obj 254 467 +~;
#X obj 191 494 cos~;
#X obj 191 521 *~;
#X obj 149 290 t b f;
#X obj 109 364 +~ 0.5;
#X obj 22 432 -~ 0.5;
#X obj 22 458 *~ 0.5;
#X obj 191 433 -~ 0.5;
#X obj 191 466 *~ 0.5;
#X obj 22 270 - 1;
#X obj 22 191 * 0.05776;
#X obj 22 296 * -1;
#X text 57 326 tape head;
#X obj 22 390 phasor~;
#X obj 317 390 max 1.5;
#X obj 240 213 max 1;
#X text 58 339 rotation freq;
#X obj 85 484 vd~ \$0-del;
#X obj 254 496 vd~ \$0-del;
#X obj 32 69 delwrite~ \$0-del 5000;
#X obj 221 25 inlet;
#X obj 221 70 route transpose window delay;
#X text 203 194 window (msec);
#X text 336 352 delay (msec);
#X text 56 160 transposition (semitones);
#X msg 231 50 transpose 0 \, window 100 \, delay 0;
#X obj 270 25 loadbang;
#X text 108 584 adapted from pd/doc/3.audio.examples/G09.pitchshift.pd
;
#X connect 1 0 35 0;
#X connect 2 0 10 0;
#X connect 3 0 2 1;
#X connect 3 0 15 1;
#X connect 4 0 3 0;
#X connect 5 0 25 0;
#X connect 6 0 29 0;
#X connect 7 0 19 0;
#X connect 8 0 10 1;
#X connect 8 0 16 1;
#X connect 9 0 8 0;
#X connect 10 0 33 0;
#X connect 11 0 12 0;
#X connect 12 0 13 0;
#X connect 13 0 0 0;
#X connect 14 0 15 0;
#X connect 14 0 23 0;
#X connect 15 0 16 0;
#X connect 16 0 34 0;
#X connect 17 0 18 0;
#X connect 18 0 13 1;
#X connect 19 0 6 0;
#X connect 19 1 6 1;
#X connect 20 0 14 0;
#X connect 21 0 22 0;
#X connect 22 0 11 0;
#X connect 23 0 24 0;
#X connect 24 0 17 0;
#X connect 25 0 27 0;
#X connect 26 0 5 0;
#X connect 27 0 6 0;
#X connect 29 0 2 0;
#X connect 29 0 21 0;
#X connect 29 0 20 0;
#X connect 30 0 9 0;
#X connect 31 0 7 0;
#X connect 31 0 4 0;
#X connect 33 0 12 1;
#X connect 34 0 18 1;
#X connect 36 0 37 0;
#X connect 37 0 26 0;
#X connect 37 1 31 0;
#X connect 37 2 30 0;
#X connect 41 0 37 0;
#X connect 42 0 41 0;
#X restore 257 365 pd p-shift;
#X msg 314 190 \$1 1000;
#X obj 314 212 line;
#X obj 314 147 random 240;
#X obj 314 169 / 10;
#X obj 314 253 - 12;
#X obj 397 253 + 1;
#X obj 397 225 random 3;
#X obj 397 147 metro 1000;
#X obj 397 81 loadbang;
#X obj 397 114 tgl 15 0 empty empty empty 17 7 0 10 -262144 -1 -1 1
1;
#X obj 257 60 inlet~;
#X obj 314 60 inlet;
#X obj 257 444 outlet~;
#X connect 0 0 4 1;
#X connect 1 0 0 0;
#X connect 2 0 3 0;
#X connect 3 0 4 1;
#X connect 4 0 17 0;
#X connect 5 0 6 0;
#X connect 6 0 9 0;
#X connect 7 0 8 0;
#X connect 8 0 5 0;
#X connect 9 0 1 0;
#X connect 10 0 2 0;
#X connect 11 0 10 0;
#X connect 12 0 11 0;
#X connect 13 0 14 0;
#X connect 14 0 12 0;
#X connect 15 0 4 0;
#X connect 16 0 7 0;
#X restore 289 192 pd p-shft;
#N canvas 0 23 807 682 p-shft 0;
#X msg 314 320 transpose \$1;
#X floatatom 314 301 5 0 0 0 - - -, f 5;
#X floatatom 397 300 5 0 0 0 - - -, f 5;
#X msg 397 320 window \$1;
#N canvas 0 23 883 681 p-shift 0;
#X obj 22 583 outlet~;
#X obj 32 27 inlet~;
#X obj 85 432 *~;
#X obj 208 369 line~;
#X obj 208 343 pack 0 200;
#X obj 22 217 exp;
#X obj 22 333 /;
#X obj 149 263 * 0.001;
#X obj 317 439 line~;
#X obj 317 414 pack 0 200;
#X obj 85 458 +~;
#X obj 22 484 cos~;
#X obj 22 511 *~;
#X obj 22 540 +~;
#X obj 109 391 wrap~;
#X obj 254 434 *~;
#X obj 254 467 +~;
#X obj 191 494 cos~;
#X obj 191 521 *~;
#X obj 149 290 t b f;
#X obj 109 364 +~ 0.5;
#X obj 22 432 -~ 0.5;
#X obj 22 458 *~ 0.5;
#X obj 191 433 -~ 0.5;
#X obj 191 466 *~ 0.5;
#X obj 22 270 - 1;
#X obj 22 191 * 0.05776;
#X obj 22 296 * -1;
#X text 57 326 tape head;
#X obj 22 390 phasor~;
#X obj 317 390 max 1.5;
#X obj 240 213 max 1;
#X text 58 339 rotation freq;
#X obj 85 484 vd~ \$0-del;
#X obj 254 496 vd~ \$0-del;
#X obj 32 69 delwrite~ \$0-del 5000;
#X obj 221 25 inlet;
#X obj 221 70 route transpose window delay;
#X text 203 194 window (msec);
#X text 336 352 delay (msec);
#X text 56 160 transposition (semitones);
#X msg 231 50 transpose 0 \, window 100 \, delay 0;
#X obj 270 25 loadbang;
#X text 108 584 adapted from pd/doc/3.audio.examples/G09.pitchshift.pd
;
#X connect 1 0 35 0;
#X connect 2 0 10 0;
#X connect 3 0 2 1;
#X connect 3 0 15 1;
#X connect 4 0 3 0;
#X connect 5 0 25 0;
#X connect 6 0 29 0;
#X connect 7 0 19 0;
#X connect 8 0 10 1;
#X connect 8 0 16 1;
#X connect 9 0 8 0;
#X connect 10 0 33 0;
#X connect 11 0 12 0;
#X connect 12 0 13 0;
#X connect 13 0 0 0;
#X connect 14 0 15 0;
#X connect 14 0 23 0;
#X connect 15 0 16 0;
#X connect 16 0 34 0;
#X connect 17 0 18 0;
#X connect 18 0 13 1;
#X connect 19 0 6 0;
#X connect 19 1 6 1;
#X connect 20 0 14 0;
#X connect 21 0 22 0;
#X connect 22 0 11 0;
#X connect 23 0 24 0;
#X connect 24 0 17 0;
#X connect 25 0 27 0;
#X connect 26 0 5 0;
#X connect 27 0 6 0;
#X connect 29 0 2 0;
#X connect 29 0 21 0;
#X connect 29 0 20 0;
#X connect 30 0 9 0;
#X connect 31 0 7 0;
#X connect 31 0 4 0;
#X connect 33 0 12 1;
#X connect 34 0 18 1;
#X connect 36 0 37 0;
#X connect 37 0 26 0;
#X connect 37 1 31 0;
#X connect 37 2 30 0;
#X connect 41 0 37 0;
#X connect 42 0 41 0;
#X restore 257 365 pd p-shift;
#X msg 314 190 \$1 1000;
#X obj 314 212 line;
#X obj 314 147 random 240;
#X obj 314 169 / 10;
#X obj 314 253 - 12;
#X obj 397 253 + 1;
#X obj 397 225 random 3;
#X obj 397 147 metro 1000;
#X obj 397 81 loadbang;
#X obj 397 114 tgl 15 0 empty empty empty 17 7 0 10 -262144 -1 -1 1
1;
#X obj 257 60 inlet~;
#X obj 314 60 inlet;
#X obj 257 444 outlet~;
#X connect 0 0 4 1;
#X connect 1 0 0 0;
#X connect 2 0 3 0;
#X connect 3 0 4 1;
#X connect 4 0 17 0;
#X connect 5 0 6 0;
#X connect 6 0 9 0;
#X connect 7 0 8 0;
#X connect 8 0 5 0;
#X connect 9 0 1 0;
#X connect 10 0 2 0;
#X connect 11 0 10 0;
#X connect 12 0 11 0;
#X connect 13 0 14 0;
#X connect 14 0 12 0;
#X connect 15 0 4 0;
#X connect 16 0 7 0;
#X restore 350 192 pd p-shft;
#N canvas 0 23 807 682 p-shft 0;
#X msg 314 320 transpose \$1;
#X floatatom 314 301 5 0 0 0 - - -, f 5;
#X floatatom 397 300 5 0 0 0 - - -, f 5;
#X msg 397 320 window \$1;
#N canvas 0 23 883 681 p-shift 0;
#X obj 22 583 outlet~;
#X obj 32 27 inlet~;
#X obj 85 432 *~;
#X obj 208 369 line~;
#X obj 208 343 pack 0 200;
#X obj 22 217 exp;
#X obj 22 333 /;
#X obj 149 263 * 0.001;
#X obj 317 439 line~;
#X obj 317 414 pack 0 200;
#X obj 85 458 +~;
#X obj 22 484 cos~;
#X obj 22 511 *~;
#X obj 22 540 +~;
#X obj 109 391 wrap~;
#X obj 254 434 *~;
#X obj 254 467 +~;
#X obj 191 494 cos~;
#X obj 191 521 *~;
#X obj 149 290 t b f;
#X obj 109 364 +~ 0.5;
#X obj 22 432 -~ 0.5;
#X obj 22 458 *~ 0.5;
#X obj 191 433 -~ 0.5;
#X obj 191 466 *~ 0.5;
#X obj 22 270 - 1;
#X obj 22 191 * 0.05776;
#X obj 22 296 * -1;
#X text 57 326 tape head;
#X obj 22 390 phasor~;
#X obj 317 390 max 1.5;
#X obj 240 213 max 1;
#X text 58 339 rotation freq;
#X obj 85 484 vd~ \$0-del;
#X obj 254 496 vd~ \$0-del;
#X obj 32 69 delwrite~ \$0-del 5000;
#X obj 221 25 inlet;
#X obj 221 70 route transpose window delay;
#X text 203 194 window (msec);
#X text 336 352 delay (msec);
#X text 56 160 transposition (semitones);
#X msg 231 50 transpose 0 \, window 100 \, delay 0;
#X obj 270 25 loadbang;
#X text 108 584 adapted from pd/doc/3.audio.examples/G09.pitchshift.pd
;
#X connect 1 0 35 0;
#X connect 2 0 10 0;
#X connect 3 0 2 1;
#X connect 3 0 15 1;
#X connect 4 0 3 0;
#X connect 5 0 25 0;
#X connect 6 0 29 0;
#X connect 7 0 19 0;
#X connect 8 0 10 1;
#X connect 8 0 16 1;
#X connect 9 0 8 0;
#X connect 10 0 33 0;
#X connect 11 0 12 0;
#X connect 12 0 13 0;
#X connect 13 0 0 0;
#X connect 14 0 15 0;
#X connect 14 0 23 0;
#X connect 15 0 16 0;
#X connect 16 0 34 0;
#X connect 17 0 18 0;
#X connect 18 0 13 1;
#X connect 19 0 6 0;
#X connect 19 1 6 1;
#X connect 20 0 14 0;
#X connect 21 0 22 0;
#X connect 22 0 11 0;
#X connect 23 0 24 0;
#X connect 24 0 17 0;
#X connect 25 0 27 0;
#X connect 26 0 5 0;
#X connect 27 0 6 0;
#X connect 29 0 2 0;
#X connect 29 0 21 0;
#X connect 29 0 20 0;
#X connect 30 0 9 0;
#X connect 31 0 7 0;
#X connect 31 0 4 0;
#X connect 33 0 12 1;
#X connect 34 0 18 1;
#X connect 36 0 37 0;
#X connect 37 0 26 0;
#X connect 37 1 31 0;
#X connect 37 2 30 0;
#X connect 41 0 37 0;
#X connect 42 0 41 0;
#X restore 257 365 pd p-shift;
#X msg 314 190 \$1 1000;
#X obj 314 212 line;
#X obj 314 147 random 240;
#X obj 314 169 / 10;
#X obj 314 253 - 12;
#X obj 397 253 + 1;
#X obj 397 225 random 3;
#X obj 397 147 metro 1000;
#X obj 397 81 loadbang;
#X obj 397 114 tgl 15 0 empty empty empty 17 7 0 10 -262144 -1 -1 1
1;
#X obj 257 60 inlet~;
#X obj 314 60 inlet;
#X obj 257 444 outlet~;
#X connect 0 0 4 1;
#X connect 1 0 0 0;
#X connect 2 0 3 0;
#X connect 3 0 4 1;
#X connect 4 0 17 0;
#X connect 5 0 6 0;
#X connect 6 0 9 0;
#X connect 7 0 8 0;
#X connect 8 0 5 0;
#X connect 9 0 1 0;
#X connect 10 0 2 0;
#X connect 11 0 10 0;
#X connect 12 0 11 0;
#X connect 13 0 14 0;
#X connect 14 0 12 0;
#X connect 15 0 4 0;
#X connect 16 0 7 0;
#X restore 411 192 pd p-shft;
#N canvas 0 23 807 682 p-shft 0;
#X msg 314 320 transpose \$1;
#X floatatom 314 301 5 0 0 0 - - -, f 5;
#X floatatom 397 300 5 0 0 0 - - -, f 5;
#X msg 397 320 window \$1;
#N canvas 0 23 883 681 p-shift 0;
#X obj 22 583 outlet~;
#X obj 32 27 inlet~;
#X obj 85 432 *~;
#X obj 208 369 line~;
#X obj 208 343 pack 0 200;
#X obj 22 217 exp;
#X obj 22 333 /;
#X obj 149 263 * 0.001;
#X obj 317 439 line~;
#X obj 317 414 pack 0 200;
#X obj 85 458 +~;
#X obj 22 484 cos~;
#X obj 22 511 *~;
#X obj 22 540 +~;
#X obj 109 391 wrap~;
#X obj 254 434 *~;
#X obj 254 467 +~;
#X obj 191 494 cos~;
#X obj 191 521 *~;
#X obj 149 290 t b f;
#X obj 109 364 +~ 0.5;
#X obj 22 432 -~ 0.5;
#X obj 22 458 *~ 0.5;
#X obj 191 433 -~ 0.5;
#X obj 191 466 *~ 0.5;
#X obj 22 270 - 1;
#X obj 22 191 * 0.05776;
#X obj 22 296 * -1;
#X text 57 326 tape head;
#X obj 22 390 phasor~;
#X obj 317 390 max 1.5;
#X obj 240 213 max 1;
#X text 58 339 rotation freq;
#X obj 85 484 vd~ \$0-del;
#X obj 254 496 vd~ \$0-del;
#X obj 32 69 delwrite~ \$0-del 5000;
#X obj 221 25 inlet;
#X obj 221 70 route transpose window delay;
#X text 203 194 window (msec);
#X text 336 352 delay (msec);
#X text 56 160 transposition (semitones);
#X msg 231 50 transpose 0 \, window 100 \, delay 0;
#X obj 270 25 loadbang;
#X text 108 584 adapted from pd/doc/3.audio.examples/G09.pitchshift.pd
;
#X connect 1 0 35 0;
#X connect 2 0 10 0;
#X connect 3 0 2 1;
#X connect 3 0 15 1;
#X connect 4 0 3 0;
#X connect 5 0 25 0;
#X connect 6 0 29 0;
#X connect 7 0 19 0;
#X connect 8 0 10 1;
#X connect 8 0 16 1;
#X connect 9 0 8 0;
#X connect 10 0 33 0;
#X connect 11 0 12 0;
#X connect 12 0 13 0;
#X connect 13 0 0 0;
#X connect 14 0 15 0;
#X connect 14 0 23 0;
#X connect 15 0 16 0;
#X connect 16 0 34 0;
#X connect 17 0 18 0;
#X connect 18 0 13 1;
#X connect 19 0 6 0;
#X connect 19 1 6 1;
#X connect 20 0 14 0;
#X connect 21 0 22 0;
#X connect 22 0 11 0;
#X connect 23 0 24 0;
#X connect 24 0 17 0;
#X connect 25 0 27 0;
#X connect 26 0 5 0;
#X connect 27 0 6 0;
#X connect 29 0 2 0;
#X connect 29 0 21 0;
#X connect 29 0 20 0;
#X connect 30 0 9 0;
#X connect 31 0 7 0;
#X connect 31 0 4 0;
#X connect 33 0 12 1;
#X connect 34 0 18 1;
#X connect 36 0 37 0;
#X connect 37 0 26 0;
#X connect 37 1 31 0;
#X connect 37 2 30 0;
#X connect 41 0 37 0;
#X connect 42 0 41 0;
#X restore 257 365 pd p-shift;
#X msg 314 190 \$1 1000;
#X obj 314 212 line;
#X obj 314 147 random 240;
#X obj 314 169 / 10;
#X obj 314 253 - 12;
#X obj 397 253 + 1;
#X obj 397 225 random 3;
#X obj 397 147 metro 1000;
#X obj 397 81 loadbang;
#X obj 397 114 tgl 15 0 empty empty empty 17 7 0 10 -262144 -1 -1 1
1;
#X obj 257 60 inlet~;
#X obj 314 60 inlet;
#X obj 257 444 outlet~;
#X connect 0 0 4 1;
#X connect 1 0 0 0;
#X connect 2 0 3 0;
#X connect 3 0 4 1;
#X connect 4 0 17 0;
#X connect 5 0 6 0;
#X connect 6 0 9 0;
#X connect 7 0 8 0;
#X connect 8 0 5 0;
#X connect 9 0 1 0;
#X connect 10 0 2 0;
#X connect 11 0 10 0;
#X connect 12 0 11 0;
#X connect 13 0 14 0;
#X connect 14 0 12 0;
#X connect 15 0 4 0;
#X connect 16 0 7 0;
#X restore 472 192 pd p-shft;
#N canvas 0 23 807 682 p-shft 0;
#X msg 314 320 transpose \$1;
#X floatatom 314 301 5 0 0 0 - - -, f 5;
#X floatatom 397 300 5 0 0 0 - - -, f 5;
#X msg 397 320 window \$1;
#N canvas 0 23 883 681 p-shift 0;
#X obj 22 583 outlet~;
#X obj 32 27 inlet~;
#X obj 85 432 *~;
#X obj 208 369 line~;
#X obj 208 343 pack 0 200;
#X obj 22 217 exp;
#X obj 22 333 /;
#X obj 149 263 * 0.001;
#X obj 317 439 line~;
#X obj 317 414 pack 0 200;
#X obj 85 458 +~;
#X obj 22 484 cos~;
#X obj 22 511 *~;
#X obj 22 540 +~;
#X obj 109 391 wrap~;
#X obj 254 434 *~;
#X obj 254 467 +~;
#X obj 191 494 cos~;
#X obj 191 521 *~;
#X obj 149 290 t b f;
#X obj 109 364 +~ 0.5;
#X obj 22 432 -~ 0.5;
#X obj 22 458 *~ 0.5;
#X obj 191 433 -~ 0.5;
#X obj 191 466 *~ 0.5;
#X obj 22 270 - 1;
#X obj 22 191 * 0.05776;
#X obj 22 296 * -1;
#X text 57 326 tape head;
#X obj 22 390 phasor~;
#X obj 317 390 max 1.5;
#X obj 240 213 max 1;
#X text 58 339 rotation freq;
#X obj 85 484 vd~ \$0-del;
#X obj 254 496 vd~ \$0-del;
#X obj 32 69 delwrite~ \$0-del 5000;
#X obj 221 25 inlet;
#X obj 221 70 route transpose window delay;
#X text 203 194 window (msec);
#X text 336 352 delay (msec);
#X text 56 160 transposition (semitones);
#X msg 231 50 transpose 0 \, window 100 \, delay 0;
#X obj 270 25 loadbang;
#X text 108 584 adapted from pd/doc/3.audio.examples/G09.pitchshift.pd
;
#X connect 1 0 35 0;
#X connect 2 0 10 0;
#X connect 3 0 2 1;
#X connect 3 0 15 1;
#X connect 4 0 3 0;
#X connect 5 0 25 0;
#X connect 6 0 29 0;
#X connect 7 0 19 0;
#X connect 8 0 10 1;
#X connect 8 0 16 1;
#X connect 9 0 8 0;
#X connect 10 0 33 0;
#X connect 11 0 12 0;
#X connect 12 0 13 0;
#X connect 13 0 0 0;
#X connect 14 0 15 0;
#X connect 14 0 23 0;
#X connect 15 0 16 0;
#X connect 16 0 34 0;
#X connect 17 0 18 0;
#X connect 18 0 13 1;
#X connect 19 0 6 0;
#X connect 19 1 6 1;
#X connect 20 0 14 0;
#X connect 21 0 22 0;
#X connect 22 0 11 0;
#X connect 23 0 24 0;
#X connect 24 0 17 0;
#X connect 25 0 27 0;
#X connect 26 0 5 0;
#X connect 27 0 6 0;
#X connect 29 0 2 0;
#X connect 29 0 21 0;
#X connect 29 0 20 0;
#X connect 30 0 9 0;
#X connect 31 0 7 0;
#X connect 31 0 4 0;
#X connect 33 0 12 1;
#X connect 34 0 18 1;
#X connect 36 0 37 0;
#X connect 37 0 26 0;
#X connect 37 1 31 0;
#X connect 37 2 30 0;
#X connect 41 0 37 0;
#X connect 42 0 41 0;
#X restore 257 365 pd p-shift;
#X msg 314 190 \$1 1000;
#X obj 314 212 line;
#X obj 314 147 random 240;
#X obj 314 169 / 10;
#X obj 314 253 - 12;
#X obj 397 253 + 1;
#X obj 397 225 random 3;
#X obj 397 147 metro 1000;
#X obj 397 81 loadbang;
#X obj 397 114 tgl 15 0 empty empty empty 17 7 0 10 -262144 -1 -1 1
1;
#X obj 257 60 inlet~;
#X obj 314 60 inlet;
#X obj 257 444 outlet~;
#X connect 0 0 4 1;
#X connect 1 0 0 0;
#X connect 2 0 3 0;
#X connect 3 0 4 1;
#X connect 4 0 17 0;
#X connect 5 0 6 0;
#X connect 6 0 9 0;
#X connect 7 0 8 0;
#X connect 8 0 5 0;
#X connect 9 0 1 0;
#X connect 10 0 2 0;
#X connect 11 0 10 0;
#X connect 12 0 11 0;
#X connect 13 0 14 0;
#X connect 14 0 12 0;
#X connect 15 0 4 0;
#X connect 16 0 7 0;
#X restore 533 192 pd p-shft;
#N canvas 0 23 807 682 p-shft 0;
#X msg 314 320 transpose \$1;
#X floatatom 314 301 5 0 0 0 - - -, f 5;
#X floatatom 397 300 5 0 0 0 - - -, f 5;
#X msg 397 320 window \$1;
#N canvas 0 23 883 681 p-shift 0;
#X obj 22 583 outlet~;
#X obj 32 27 inlet~;
#X obj 85 432 *~;
#X obj 208 369 line~;
#X obj 208 343 pack 0 200;
#X obj 22 217 exp;
#X obj 22 333 /;
#X obj 149 263 * 0.001;
#X obj 317 439 line~;
#X obj 317 414 pack 0 200;
#X obj 85 458 +~;
#X obj 22 484 cos~;
#X obj 22 511 *~;
#X obj 22 540 +~;
#X obj 109 391 wrap~;
#X obj 254 434 *~;
#X obj 254 467 +~;
#X obj 191 494 cos~;
#X obj 191 521 *~;
#X obj 149 290 t b f;
#X obj 109 364 +~ 0.5;
#X obj 22 432 -~ 0.5;
#X obj 22 458 *~ 0.5;
#X obj 191 433 -~ 0.5;
#X obj 191 466 *~ 0.5;
#X obj 22 270 - 1;
#X obj 22 191 * 0.05776;
#X obj 22 296 * -1;
#X text 57 326 tape head;
#X obj 22 390 phasor~;
#X obj 317 390 max 1.5;
#X obj 240 213 max 1;
#X text 58 339 rotation freq;
#X obj 85 484 vd~ \$0-del;
#X obj 254 496 vd~ \$0-del;
#X obj 32 69 delwrite~ \$0-del 5000;
#X obj 221 25 inlet;
#X obj 221 70 route transpose window delay;
#X text 203 194 window (msec);
#X text 336 352 delay (msec);
#X text 56 160 transposition (semitones);
#X msg 231 50 transpose 0 \, window 100 \, delay 0;
#X obj 270 25 loadbang;
#X text 108 584 adapted from pd/doc/3.audio.examples/G09.pitchshift.pd
;
#X connect 1 0 35 0;
#X connect 2 0 10 0;
#X connect 3 0 2 1;
#X connect 3 0 15 1;
#X connect 4 0 3 0;
#X connect 5 0 25 0;
#X connect 6 0 29 0;
#X connect 7 0 19 0;
#X connect 8 0 10 1;
#X connect 8 0 16 1;
#X connect 9 0 8 0;
#X connect 10 0 33 0;
#X connect 11 0 12 0;
#X connect 12 0 13 0;
#X connect 13 0 0 0;
#X connect 14 0 15 0;
#X connect 14 0 23 0;
#X connect 15 0 16 0;
#X connect 16 0 34 0;
#X connect 17 0 18 0;
#X connect 18 0 13 1;
#X connect 19 0 6 0;
#X connect 19 1 6 1;
#X connect 20 0 14 0;
#X connect 21 0 22 0;
#X connect 22 0 11 0;
#X connect 23 0 24 0;
#X connect 24 0 17 0;
#X connect 25 0 27 0;
#X connect 26 0 5 0;
#X connect 27 0 6 0;
#X connect 29 0 2 0;
#X connect 29 0 21 0;
#X connect 29 0 20 0;
#X connect 30 0 9 0;
#X connect 31 0 7 0;
#X connect 31 0 4 0;
#X connect 33 0 12 1;
#X connect 34 0 18 1;
#X connect 36 0 37 0;
#X connect 37 0 26 0;
#X connect 37 1 31 0;
#X connect 37 2 30 0;
#X connect 41 0 37 0;
#X connect 42 0 41 0;
#X restore 257 365 pd p-shift;
#X msg 314 190 \$1 1000;
#X obj 314 212 line;
#X obj 314 147 random 240;
#X obj 314 169 / 10;
#X obj 314 253 - 12;
#X obj 397 253 + 1;
#X obj 397 225 random 3;
#X obj 397 147 metro 1000;
#X obj 397 81 loadbang;
#X obj 397 114 tgl 15 0 empty empty empty 17 7 0 10 -262144 -1 -1 1
1;
#X obj 257 60 inlet~;
#X obj 314 60 inlet;
#X obj 257 444 outlet~;
#X connect 0 0 4 1;
#X connect 1 0 0 0;
#X connect 2 0 3 0;
#X connect 3 0 4 1;
#X connect 4 0 17 0;
#X connect 5 0 6 0;
#X connect 6 0 9 0;
#X connect 7 0 8 0;
#X connect 8 0 5 0;
#X connect 9 0 1 0;
#X connect 10 0 2 0;
#X connect 11 0 10 0;
#X connect 12 0 11 0;
#X connect 13 0 14 0;
#X connect 14 0 12 0;
#X connect 15 0 4 0;
#X connect 16 0 7 0;
#X restore 594 192 pd p-shft;
#N canvas 0 23 807 682 p-shft 0;
#X msg 314 320 transpose \$1;
#X floatatom 314 301 5 0 0 0 - - -, f 5;
#X floatatom 397 300 5 0 0 0 - - -, f 5;
#X msg 397 320 window \$1;
#N canvas 0 23 883 681 p-shift 0;
#X obj 22 583 outlet~;
#X obj 32 27 inlet~;
#X obj 85 432 *~;
#X obj 208 369 line~;
#X obj 208 343 pack 0 200;
#X obj 22 217 exp;
#X obj 22 333 /;
#X obj 149 263 * 0.001;
#X obj 317 439 line~;
#X obj 317 414 pack 0 200;
#X obj 85 458 +~;
#X obj 22 484 cos~;
#X obj 22 511 *~;
#X obj 22 540 +~;
#X obj 109 391 wrap~;
#X obj 254 434 *~;
#X obj 254 467 +~;
#X obj 191 494 cos~;
#X obj 191 521 *~;
#X obj 149 290 t b f;
#X obj 109 364 +~ 0.5;
#X obj 22 432 -~ 0.5;
#X obj 22 458 *~ 0.5;
#X obj 191 433 -~ 0.5;
#X obj 191 466 *~ 0.5;
#X obj 22 270 - 1;
#X obj 22 191 * 0.05776;
#X obj 22 296 * -1;
#X text 57 326 tape head;
#X obj 22 390 phasor~;
#X obj 317 390 max 1.5;
#X obj 240 213 max 1;
#X text 58 339 rotation freq;
#X obj 85 484 vd~ \$0-del;
#X obj 254 496 vd~ \$0-del;
#X obj 32 69 delwrite~ \$0-del 5000;
#X obj 221 25 inlet;
#X obj 221 70 route transpose window delay;
#X text 203 194 window (msec);
#X text 336 352 delay (msec);
#X text 56 160 transposition (semitones);
#X msg 231 50 transpose 0 \, window 100 \, delay 0;
#X obj 270 25 loadbang;
#X text 108 584 adapted from pd/doc/3.audio.examples/G09.pitchshift.pd
;
#X connect 1 0 35 0;
#X connect 2 0 10 0;
#X connect 3 0 2 1;
#X connect 3 0 15 1;
#X connect 4 0 3 0;
#X connect 5 0 25 0;
#X connect 6 0 29 0;
#X connect 7 0 19 0;
#X connect 8 0 10 1;
#X connect 8 0 16 1;
#X connect 9 0 8 0;
#X connect 10 0 33 0;
#X connect 11 0 12 0;
#X connect 12 0 13 0;
#X connect 13 0 0 0;
#X connect 14 0 15 0;
#X connect 14 0 23 0;
#X connect 15 0 16 0;
#X connect 16 0 34 0;
#X connect 17 0 18 0;
#X connect 18 0 13 1;
#X connect 19 0 6 0;
#X connect 19 1 6 1;
#X connect 20 0 14 0;
#X connect 21 0 22 0;
#X connect 22 0 11 0;
#X connect 23 0 24 0;
#X connect 24 0 17 0;
#X connect 25 0 27 0;
#X connect 26 0 5 0;
#X connect 27 0 6 0;
#X connect 29 0 2 0;
#X connect 29 0 21 0;
#X connect 29 0 20 0;
#X connect 30 0 9 0;
#X connect 31 0 7 0;
#X connect 31 0 4 0;
#X connect 33 0 12 1;
#X connect 34 0 18 1;
#X connect 36 0 37 0;
#X connect 37 0 26 0;
#X connect 37 1 31 0;
#X connect 37 2 30 0;
#X connect 41 0 37 0;
#X connect 42 0 41 0;
#X restore 257 365 pd p-shift;
#X msg 314 190 \$1 1000;
#X obj 314 212 line;
#X obj 314 147 random 240;
#X obj 314 169 / 10;
#X obj 314 253 - 12;
#X obj 397 253 + 1;
#X obj 397 225 random 3;
#X obj 397 147 metro 1000;
#X obj 397 81 loadbang;
#X obj 397 114 tgl 15 0 empty empty empty 17 7 0 10 -262144 -1 -1 1
1;
#X obj 257 60 inlet~;
#X obj 314 60 inlet;
#X obj 257 444 outlet~;
#X connect 0 0 4 1;
#X connect 1 0 0 0;
#X connect 2 0 3 0;
#X connect 3 0 4 1;
#X connect 4 0 17 0;
#X connect 5 0 6 0;
#X connect 6 0 9 0;
#X connect 7 0 8 0;
#X connect 8 0 5 0;
#X connect 9 0 1 0;
#X connect 10 0 2 0;
#X connect 11 0 10 0;
#X connect 12 0 11 0;
#X connect 13 0 14 0;
#X connect 14 0 12 0;
#X connect 15 0 4 0;
#X connect 16 0 7 0;
#X restore 655 192 pd p-shft;
#N canvas 0 23 807 682 p-shft 1;
#X msg 314 320 transpose \$1;
#X floatatom 314 301 5 0 0 0 - - -, f 5;
#X floatatom 397 300 5 0 0 0 - - -, f 5;
#X msg 397 320 window \$1;
#N canvas 0 23 883 681 p-shift 0;
#X obj 22 583 outlet~;
#X obj 32 27 inlet~;
#X obj 85 432 *~;
#X obj 208 369 line~;
#X obj 208 343 pack 0 200;
#X obj 22 217 exp;
#X obj 22 333 /;
#X obj 149 263 * 0.001;
#X obj 317 439 line~;
#X obj 317 414 pack 0 200;
#X obj 85 458 +~;
#X obj 22 484 cos~;
#X obj 22 511 *~;
#X obj 22 540 +~;
#X obj 109 391 wrap~;
#X obj 254 434 *~;
#X obj 254 467 +~;
#X obj 191 494 cos~;
#X obj 191 521 *~;
#X obj 149 290 t b f;
#X obj 109 364 +~ 0.5;
#X obj 22 432 -~ 0.5;
#X obj 22 458 *~ 0.5;
#X obj 191 433 -~ 0.5;
#X obj 191 466 *~ 0.5;
#X obj 22 270 - 1;
#X obj 22 191 * 0.05776;
#X obj 22 296 * -1;
#X text 57 326 tape head;
#X obj 22 390 phasor~;
#X obj 317 390 max 1.5;
#X obj 240 213 max 1;
#X text 58 339 rotation freq;
#X obj 85 484 vd~ \$0-del;
#X obj 254 496 vd~ \$0-del;
#X obj 32 69 delwrite~ \$0-del 5000;
#X obj 221 25 inlet;
#X obj 221 70 route transpose window delay;
#X text 203 194 window (msec);
#X text 336 352 delay (msec);
#X text 56 160 transposition (semitones);
#X msg 231 50 transpose 0 \, window 100 \, delay 0;
#X obj 270 25 loadbang;
#X text 108 584 adapted from pd/doc/3.audio.examples/G09.pitchshift.pd
;
#X connect 1 0 35 0;
#X connect 2 0 10 0;
#X connect 3 0 2 1;
#X connect 3 0 15 1;
#X connect 4 0 3 0;
#X connect 5 0 25 0;
#X connect 6 0 29 0;
#X connect 7 0 19 0;
#X connect 8 0 10 1;
#X connect 8 0 16 1;
#X connect 9 0 8 0;
#X connect 10 0 33 0;
#X connect 11 0 12 0;
#X connect 12 0 13 0;
#X connect 13 0 0 0;
#X connect 14 0 15 0;
#X connect 14 0 23 0;
#X connect 15 0 16 0;
#X connect 16 0 34 0;
#X connect 17 0 18 0;
#X connect 18 0 13 1;
#X connect 19 0 6 0;
#X connect 19 1 6 1;
#X connect 20 0 14 0;
#X connect 21 0 22 0;
#X connect 22 0 11 0;
#X connect 23 0 24 0;
#X connect 24 0 17 0;
#X connect 25 0 27 0;
#X connect 26 0 5 0;
#X connect 27 0 6 0;
#X connect 29 0 2 0;
#X connect 29 0 21 0;
#X connect 29 0 20 0;
#X connect 30 0 9 0;
#X connect 31 0 7 0;
#X connect 31 0 4 0;
#X connect 33 0 12 1;
#X connect 34 0 18 1;
#X connect 36 0 37 0;
#X connect 37 0 26 0;
#X connect 37 1 31 0;
#X connect 37 2 30 0;
#X connect 41 0 37 0;
#X connect 42 0 41 0;
#X restore 257 365 pd p-shift;
#X msg 314 190 \$1 1000;
#X obj 314 212 line;
#X obj 314 147 random 240;
#X obj 314 169 / 10;
#X obj 314 253 - 12;
#X obj 397 253 + 1;
#X obj 397 147 metro 1000;
#X obj 397 81 loadbang;
#X obj 397 114 tgl 15 0 empty empty empty 17 7 0 10 -262144 -1 -1 1
1;
#X obj 257 60 inlet~;
#X obj 314 60 inlet;
#X obj 257 444 outlet~;
#X obj 397 173 random 3;
#X connect 0 0 4 1;
#X connect 1 0 0 0;
#X connect 2 0 3 0;
#X connect 3 0 4 1;
#X connect 4 0 16 0;
#X connect 5 0 6 0;
#X connect 6 0 9 0;
#X connect 7 0 8 0;
#X connect 8 0 5 0;
#X connect 9 0 1 0;
#X connect 10 0 2 0;
#X connect 11 0 17 0;
#X connect 12 0 13 0;
#X connect 13 0 11 0;
#X connect 14 0 4 0;
#X connect 15 0 7 0;
#X connect 17 0 10 0;
#X restore 716 192 pd p-shft;
#X obj 304 267 /~ 127;
#X obj 365 391 /~ 127;
#X obj 289 323 *~;
#X obj 350 449 *~;
#X obj 426 267 /~ 127;
#X obj 411 326 *~;
#N canvas 35 23 1262 844 tablesAAA 0;
#N canvas 0 23 450 278 (subpatch) 0;
#X array tableAAA1 127 float 3;
#A 0 0.907074 1.81399 3.62832 4.53548 7.25698 9.07131 16.3286 19.9573
24.4931 32.6576 36.2863 44.4508 46.2651 48.0794 56.2438 57.151 62.594
64.4083 66.2227 71.6656 73.48 79.8301 85.2731 88.9018 91.6233 93.4376
96.1591 99.7878 101.602 103.416 104.324 105.231 106.138 107.045 107.952
108.859 110.674 110.674 112.488 112.488 113.395 113.395 114.302 115.21
116.117 116.117 116.57 117.024 117.024 117.931 117.931 117.931 118.838
118.838 118.838 118.838 119.745 119.745 120.653 121.56 121.56 121.56
122.467 122.467 122.467 122.467 121.56 121.56 122.467 122.467 122.467
122.467 121.56 118.839 119.292 120.653 121.106 121.56 122.467 122.467
123.374 123.374 124.282 124.282 124.282 124.282 124.282 124.282 124.282
124.282 124.282 124.282 124.282 123.374 123.374 123.374 122.921 122.467
122.467 122.467 121.56 121.56 121.56 121.56 121.56 121.56 121.56 122.467
122.467 122.467 122.467 123.374 123.374 124.282 124.282 124.282 124.282
2.72131 3.62848 3.62848 3.62848 3.62848 3.62848 3.62848 3.62848 1.81403
0.906868;
#X coords 0 127 127 0 200 140 1 0 0;
#X restore 75 294 graph;
#N canvas 0 23 450 278 (subpatch) 0;
#X array tableAAA2 127 float 3;
#A 0 33.5645 2.72141 3.62857 3.62857 4.53574 5.4429 5.4429 6.35007
7.25723 7.25723 8.1644 9.07156 9.97873 12.7002 13.6074 16.3289 18.1432
20.8647 26.3077 27.2149 29.9364 31.7507 34.4722 39.9152 40.8224 44.451
47.1725 50.8012 55.337 58.0585 61.6872 64.4087 70.7588 73.4803 77.109
63.5015 74.841 76.2018 82.5519 86.1806 88.4485 90.7164 92.8332 94.9499
97.0666 99.7881 101.149 102.51 103.87 105.231 107.045 110.674 111.581
112.488 112.488 113.396 114.303 114.756 115.21 116.117 116.117 116.117
116.571 117.024 117.024 117.024 117.931 117.931 117.931 118.385 118.839
118.839 118.839 118.839 118.839 118.839 118.839 118.839 117.931 117.931
117.931 117.931 117.931 117.931 117.931 117.931 117.931 117.931 117.931
117.931 117.931 117.931 117.931 117.931 117.931 117.931 117.931 117.705
117.478 117.251 117.024 117.024 117.024 117.024 117.024 117.024 117.024
118.839 119.746 119.746 119.746 119.746 119.746 119.746 119.746 119.746
119.746 119.746 119.746 119.746 119.746 119.746 119.746 1.81381 1.81381
2.72098 3.62814;
#X coords 0 127 127 0 200 140 1 0 0;
#X restore 277 294 graph;
#N canvas 0 23 450 278 (subpatch) 0;
#X array tableAAA3 127 float 3;
#A 0 0.906349 1.81351 1.81351 2.72068 3.62785 3.62857 3.62857 3.62857
3.62857 3.62857 3.62857 3.62857 3.62857 3.62857 3.62857 3.62857 3.62857
3.62857 3.62857 3.62857 5.44286 6.35002 6.35002 7.71077 9.07152 9.97868
10.8858 10.8858 11.793 12.2466 13.6073 14.5145 16.3288 19.0503 20.8647
22.679 25.8541 29.0292 31.1459 33.2626 35.3793 37.1936 39.008 41.7295
45.3581 48.9868 50.8011 52.6155 53.9762 55.337 59.8728 63.5014 66.2229
68.9444 69.8516 72.5731 74.3874 81.6448 84.3663 86.1806 88.9021 90.7164
92.5307 96.1594 97.9737 99.7881 102.51 104.324 106.138 107.65 109.162
110.674 111.808 112.942 114.076 115.21 116.571 117.024 117.024 117.931
118.839 118.839 119.746 120.199 120.653 120.653 120.653 120.653 120.653
120.653 120.653 120.653 120.653 120.653 120.653 120.653 120.653 120.653
120.653 120.653 120.653 120.653 120.653 120.653 120.653 120.653 120.653
120.653 120.653 120.653 120.653 120.653 120.653 120.653 120.653 120.653
120.653 120.653 120.653 120.653 120.653 120.653 114.303 115.21 2.72138
2.72138 0.906647;
#X coords 0 127 127 0 200 140 1 0 0;
#X restore 479 294 graph;
#N canvas 0 23 450 278 (subpatch) 0;
#X array tableAAA4 127 float 3;
#A 0 1.81406 2.26764 2.72122 2.72122 2.72122 3.62839 3.62839 3.62839
3.85518 4.08197 4.30876 4.53555 7.25714 7.25714 7.25714 7.25714 7.25714
7.25714 7.25714 7.25714 7.25714 7.25714 7.25714 7.25714 7.25714 7.25714
7.25714 7.25714 7.25714 7.25714 7.25714 7.25714 7.25714 7.25714 7.25714
7.25714 7.25714 7.25714 7.25714 7.25714 7.25714 7.25714 8.16431 9.07147
10.8858 11.793 12.7001 13.6073 16.3288 17.236 18.1431 35.3793 58.9656
63.5014 71.6659 74.3874 87.9949 90.7164 96.1594 100.695 103.417 104.777
106.138 107.953 109.767 110.674 112.488 113.396 114.303 115.21 117.024
117.931 118.839 118.839 118.839 120.653 120.653 120.653 120.653 120.653
120.653 120.653 120.653 120.653 120.653 120.653 120.653 120.653 120.653
120.653 120.653 120.653 120.653 120.653 120.653 120.653 120.653 120.653
120.653 121.106 121.56 121.56 121.56 117.024 117.931 117.931 118.838
119.292 119.746 120.653 120.653 121.106 121.56 121.56 122.467 122.467
122.467 122.467 123.374 123.374 123.374 123.374 123.374 123.374 123.374
123.374 1.81406;
#X coords 0 127 127 0 200 140 1 0 0;
#X restore 681 294 graph;
#N canvas 0 23 450 278 (subpatch) 0;
#X array tableAAA5 127 float 3;
#A 0 1.81406 2.26764 2.72122 2.72122 2.72122 3.62839 4.53571 4.53571
4.53571 6.35 6.35 6.35 6.35 6.35 6.35 6.35 6.35 6.35 6.35 6.35 6.35
6.35 6.35 6.35 6.35 6.35 6.35 6.35 6.35 6.35 6.35 6.35 6.35 6.35 4.53571
4.53571 4.53571 4.53571 4.8381 5.14049 5.44288 5.44288 5.44288 5.44288
5.44288 5.44288 6.35004 6.35004 6.35004 7.25721 7.25721 8.16438 8.16438
8.16438 8.16438 8.61796 9.07154 9.07154 9.52512 9.97871 9.97871 9.97871
10.2811 10.5835 11.793 12.2466 12.7002 12.7002 13.6074 14.2121 14.8169
15.4217 18.1432 18.1432 19.9575 20.8647 22.679 23.5862 25.4005 29.0292
30.8435 37.1937 39.9152 55.337 97.9738 104.324 107.953 111.581 114.303
115.21 116.117 116.117 117.024 117.478 117.931 118.385 118.839 118.839
118.839 118.839 119.746 119.746 119.746 119.746 119.746 119.746 119.746
119.746 119.746 119.746 119.746 119.746 119.746 119.746 119.746 119.746
119.746 119.746 119.746 119.746 119.746 119.746 119.746 116.117 118.839
119.746 5.44288;
#X coords 0 127 127 0 200 140 1 0 0;
#X restore 883 294 graph;
#N canvas 0 23 450 278 (subpatch) 0;
#X array tableAAA6 127 float 3;
#A 0 0.906349 1.81351 0.907074 0.907074 1.81424 1.81424 2.72141 2.72141
3.17499 3.62857 3.62857 4.08215 4.53574 4.53574 4.53574 4.53574 4.53574
4.53574 4.53574 4.53574 4.53574 4.53574 4.53574 4.53574 4.53574 4.53574
4.53574 4.53574 4.53574 4.53574 4.53574 4.53574 4.53574 4.53574 4.53574
4.53574 4.53574 4.53574 4.53574 4.53574 4.53574 4.53574 4.53574 3.62857
3.62857 3.62857 3.62857 3.62857 3.62857 3.62857 3.62857 3.62857 3.62857
3.62857 3.62857 3.62857 3.62857 7.25723 7.25723 7.25723 7.25723 7.25723
8.1644 8.1644 8.1644 9.07156 9.07156 9.07156 9.97873 9.97873 10.8859
11.7931 12.7002 13.6074 13.6074 14.5146 14.5146 14.5146 14.5146 15.4217
16.3289 16.3289 18.1432 18.1432 19.9576 20.8647 22.679 25.4005 27.2149
55.3357 31.7507 35.3794 39.008 41.7295 48.0797 50.8012 58.0585 62.5943
66.223 72.5714 71.666 73.4803 76.2018 80.7376 84.3663 89.8071 87.995
88.9021 90.7165 92.5308 95.2523 97.0666 97.9738 100.695 101.602 103.417
105.231 107.045 110.674 111.581 115.21 116.117 117.931 117.931 2.72138
2.72138 0.906647;
#X coords 0 127 127 0 200 140 1 0 0;
#X restore 1087 294 graph;
#N canvas 0 23 450 278 (subpatch) 0;
#X array tableAAA7 127 float 3;
#A 0 1.81406 2.26764 2.72122 2.72122 2.72122 3.62839 3.62839 3.62839
3.85518 4.08197 4.30876 4.53555 4.53555 4.53555 5.44272 5.44272 5.44272
5.8963 6.34988 6.34988 6.34988 6.34988 6.65227 6.95466 7.25705 7.25705
7.25705 7.25705 8.16422 8.16422 9.07138 8.16428 8.16428 8.16428 8.16428
8.16428 8.16428 8.16428 8.16428 8.16428 8.16428 8.16428 7.8619 7.55951
7.25712 7.25712 7.25712 7.25712 7.25712 7.25712 7.25712 7.25712 7.25712
7.25712 7.25712 7.25712 7.25712 7.25712 7.25712 7.25712 7.25712 7.25712
7.25712 7.25712 7.25712 7.25712 7.25712 8.16428 8.16428 8.16428 8.16428
8.16428 9.07145 9.07145 9.07145 9.07145 9.07145 9.07145 9.07145 9.07145
9.07145 9.07145 9.97861 9.97861 9.97861 10.8858 10.8858 10.8858 10.8858
12.7001 12.7001 17.2359 19.0503 22.6789 24.4933 28.1219 32.6578 35.3792
40.8222 42.6366 48.9867 58.9643 54.4297 58.9656 61.687 66.2229 78.0143
82.5519 85.2734 86.1805 88.902 91.6235 94.345 96.1593 98.8808 102.509
103.417 107.952 108.86 112.488 114.303 116.117 117.024 117.931 118.838
2.72122 1.81406;
#X coords 0 127 127 0 200 140 1 0 0;
#X restore 1289 294 graph;
#N canvas 0 23 450 278 (subpatch) 0;
#X array tableAAA8 127 float 3;
#A 0 1.81406 2.26764 2.72122 2.72122 2.72122 3.62839 4.53571 4.53571
4.53571 5.44288 4.53564 4.53564 4.53564 4.53564 4.53564 4.53564 4.53564
4.53564 4.53564 4.53564 4.53564 4.53564 4.53564 4.53564 4.53564 4.53564
4.53564 4.53564 4.53564 4.53564 4.53564 4.53564 4.53564 4.53564 4.53564
4.53564 4.53564 4.53564 4.53564 4.53564 4.53564 4.53564 4.53564 4.53564
4.53564 5.44281 5.44281 5.44281 5.44281 5.44281 5.44281 5.44281 5.44281
6.34998 6.34998 6.34998 6.34998 6.34998 6.34998 6.34998 6.34998 6.34998
6.34998 6.34998 6.34998 6.34998 6.34998 6.34998 6.34998 6.34998 6.34998
6.34998 6.34998 6.34998 6.34998 6.34998 6.34998 6.34998 6.34998 6.34998
6.34998 6.34998 6.34998 6.34998 6.34998 6.34998 6.34998 6.34998 6.34998
6.34998 6.34998 6.34998 6.34998 6.34998 6.34998 6.34998 6.34998 6.34998
6.34998 7.25714 7.25714 7.25714 8.16431 8.16431 9.07147 9.07147 9.07147
9.07147 9.07147 9.07147 9.97864 11.793 13.6073 17.236 18.1431 64.4076
68.0363 69.8506 55.3369 63.5014 82.5519 87.0877 114.303 121.56 123.374
125.189 5.44288;
#X coords 0 127 127 0 200 140 1 0 0;
#X restore 1491 294 graph;
#X restore 98 73 pd tablesAAA;
#X obj 304 240 tabread4~ tableAAA1;
#X obj 365 364 tabread4~ tableAAA2;
#X obj 426 240 tabread4~ tableAAA3;
#X obj 487 391 /~ 127;
#X obj 472 449 *~;
#X obj 548 267 /~ 127;
#X obj 609 391 /~ 127;
#X obj 533 323 *~;
#X obj 594 449 *~;
#X obj 670 267 /~ 127;
#X obj 655 326 *~;
#X obj 731 391 /~ 127;
#X obj 716 449 *~;
#X obj 487 364 tabread4~ tableAAA4;
#X obj 548 240 tabread4~ tableAAA5;
#X obj 609 364 tabread4~ tableAAA6;
#X obj 670 240 tabread4~ tableAAA7;
#X obj 731 364 tabread4~ tableAAA8;
#X floatatom 96 263 5 0 0 0 - - -, f 5;
#X text 237 241 0-127;
#X obj 289 517 /~ 8;
#X obj 99 241 hsl 128 15 0 127 0 0 empty empty empty -2 -8 0 10 -262144
-1 -1 5984 1;
#X obj 496 -114 inlet~;
#X obj 96 164 random 127;
#X obj 96 214 line;
#X obj 96 189 pack 0 20000;
#X obj 96 116 metro 10000;
#X obj 498 117 freeverb~;
#X connect 0 0 16 0;
#X connect 0 1 16 1;
#X connect 1 0 0 0;
#X connect 1 0 16 0;
#X connect 1 0 62 0;
#X connect 2 0 0 0;
#X connect 2 0 16 0;
#X connect 2 0 62 0;
#X connect 3 0 4 0;
#X connect 4 0 6 0;
#X connect 5 0 3 0;
#X connect 5 0 8 0;
#X connect 6 0 7 0;
#X connect 7 0 1 0;
#X connect 8 0 9 0;
#X connect 9 0 10 0;
#X connect 10 0 11 0;
#X connect 11 0 2 0;
#X connect 12 0 0 0;
#X connect 12 0 16 0;
#X connect 12 0 62 0;
#X connect 13 0 12 0;
#X connect 13 0 14 0;
#X connect 14 0 0 0;
#X connect 14 0 16 0;
#X connect 14 0 62 0;
#X connect 15 0 5 0;
#X connect 15 0 27 1;
#X connect 15 0 26 1;
#X connect 15 0 25 1;
#X connect 15 0 24 1;
#X connect 15 0 23 1;
#X connect 15 0 22 1;
#X connect 15 0 21 1;
#X connect 15 0 20 1;
#X connect 16 0 62 0;
#X connect 16 1 62 1;
#X connect 17 0 18 0;
#X connect 18 0 15 0;
#X connect 18 0 61 0;
#X connect 20 0 30 0;
#X connect 21 0 31 0;
#X connect 22 0 33 0;
#X connect 23 0 39 0;
#X connect 24 0 42 0;
#X connect 25 0 43 0;
#X connect 26 0 45 0;
#X connect 27 0 47 0;
#X connect 28 0 30 1;
#X connect 29 0 31 1;
#X connect 30 0 55 0;
#X connect 31 0 55 0;
#X connect 32 0 33 1;
#X connect 33 0 55 0;
#X connect 35 0 28 0;
#X connect 36 0 29 0;
#X connect 37 0 32 0;
#X connect 38 0 39 1;
#X connect 39 0 55 0;
#X connect 40 0 42 1;
#X connect 41 0 43 1;
#X connect 42 0 55 0;
#X connect 43 0 55 0;
#X connect 44 0 45 1;
#X connect 45 0 55 0;
#X connect 46 0 47 1;
#X connect 47 0 55 0;
#X connect 48 0 38 0;
#X connect 49 0 40 0;
#X connect 50 0 41 0;
#X connect 51 0 44 0;
#X connect 52 0 46 0;
#X connect 53 0 35 0;
#X connect 53 0 37 0;
#X connect 53 0 49 0;
#X connect 53 0 51 0;
#X connect 53 0 36 0;
#X connect 53 0 48 0;
#X connect 53 0 50 0;
#X connect 53 0 52 0;
#X connect 55 0 19 0;
#X connect 56 0 53 0;
#X connect 57 0 0 0;
#X connect 58 0 60 0;
#X connect 59 0 56 0;
#X connect 60 0 59 0;
#X connect 61 0 58 0;
#X connect 62 0 20 0;
#X connect 62 0 21 0;
#X connect 62 0 22 0;
#X connect 62 0 23 0;
#X connect 62 0 24 0;
#X connect 62 0 25 0;
#X connect 62 0 26 0;
#X connect 62 0 27 0;
#X restore 536 573 pd;
#X obj 537 683 dac~;
#X obj 624 614 *~ 0.5;
#X obj 536 613 *~ 0.2;
#X obj 139 -18 loadbang;
#X obj 139 8 delay 1000;
#X msg 17 24 read first.txt cr;
#X connect 0 0 2 0;
#X connect 2 0 4 0;
#X connect 2 0 9 0;
#X connect 2 0 8 0;
#X connect 2 1 1 0;
#X connect 3 0 2 0;
#X connect 5 0 2 0;
#X connect 7 0 16 0;
#X connect 7 0 18 0;
#X connect 7 1 11 0;
#X connect 8 0 10 0;
#X connect 10 0 7 0;
#X connect 11 0 12 0;
#X connect 12 0 13 0;
#X connect 12 1 14 0;
#X connect 13 0 0 0;
#X connect 13 0 15 0;
#X connect 14 0 3 0;
#X connect 15 0 14 0;
#X connect 16 0 19 0;
#X connect 18 0 17 0;
#X connect 18 0 17 1;
#X connect 19 0 17 0;
#X connect 19 0 17 1;
#X connect 20 0 22 0;
#X connect 20 0 21 0;
#X connect 21 0 13 0;
#X connect 22 0 2 0;
