#N canvas 3 23 1033 845 10;
#X obj 347 493 osc~;
#X obj 286 509 *~;
#X obj 286 533 *~;
#X obj 286 559 *~;
#X obj 211 350 line~;
#X obj 211 245 f;
#X obj 211 271 t f f;
#X obj 291 287 delay;
#X msg 211 313 1 \$1;
#X obj 291 311 f;
#X msg 291 334 0 \$1;
#X text 262 242 att;
#X text 342 243 dec;
#X obj 211 575 *~;
#X obj 347 366 *~ 0.5;
#X obj 226 221 + 5;
#X obj 226 201 random 20;
#X obj 306 201 random 200;
#X obj 211 163 bng 15 250 50 0 empty empty empty 17 7 0 10 -262144
-1 -1;
#X obj 392 221 + 100;
#X obj 392 201 random 50;
#X obj 495 201 random 50;
#X obj 211 680 dac~ 1;
#X obj 495 221 + 150;
#X obj 306 221 + 200;
#N canvas 0 23 699 516 input 0;
#X obj 132 391 outlet;
#X obj 338 388 outlet;
#X obj 132 57 adc~ 3 4;
#X obj 132 102 snapshot~;
#X obj 132 149 > 0.5;
#X obj 132 191 change;
#X obj 132 231 sel 1;
#N canvas 0 23 450 300 (subpatch) 0;
#X obj 10 53 spigot 1;
#X obj 10 75 t a b b;
#X msg 86 98 0;
#X obj 10 29 inlet;
#X obj 10 147 outlet;
#X obj 87 29 inlet;
#X msg 29 120 1;
#X obj 29 98 delay \$1;
#X connect 0 0 1 0;
#X connect 1 0 4 0;
#X connect 1 1 7 0;
#X connect 1 2 2 0;
#X connect 2 0 0 1;
#X connect 3 0 0 0;
#X connect 5 0 7 1;
#X connect 6 0 0 1;
#X connect 7 0 6 0;
#X restore 132 308 pd;
#X obj 132 265 bng 15 250 50 0 empty empty empty 17 7 0 10 -262144
-1 -1;
#X obj 132 358 bng 15 250 50 0 empty empty empty 17 7 0 10 -262144
-1 -1;
#X floatatom 227 293 5 0 0 0 - - -;
#X obj 227 2 loadbang;
#X msg 227 243 50;
#X obj 33 86 metro 1;
#X obj 338 102 snapshot~;
#X floatatom 338 146 5 0 0 0 - - -;
#X obj 338 169 * 20;
#X connect 2 0 3 0;
#X connect 3 0 4 0;
#X connect 4 0 5 0;
#X connect 5 0 6 0;
#X connect 6 0 8 0;
#X connect 7 0 9 0;
#X connect 8 0 7 0;
#X connect 9 0 0 0;
#X connect 10 0 7 1;
#X connect 11 0 12 0;
#X connect 11 0 13 0;
#X connect 12 0 10 0;
#X connect 13 0 3 0;
#X connect 13 0 14 0;
#X connect 14 0 15 0;
#X connect 15 0 16 0;
#X connect 16 0 1 0;
#X restore 211 119 pd input;
#X obj 443 171 + 40;
#X obj 363 171 + 190;
#X obj 546 171 + 40;
#X obj 347 392 +~ 0.8;
#X obj 347 419 *~;
#X obj 286 420 *~;
#X obj 347 469 *~;
#X obj 347 444 osc~;
#X obj 407 453 *~ 5000;
#X obj 286 444 osc~;
#X obj 519 307 noise~;
#X obj 550 389 +~ 50;
#X obj 550 366 *~ 3000;
#X obj 519 432 vcf~ 1000 5;
#X obj 519 463 vcf~ 1000 5;
#X obj 211 621 *~ 0.1;
#X obj 519 512 *~ 5;
#X obj 211 654 +~;
#X obj 589 223 + 2800;
#X obj 589 203 random 180;
#X obj 646 173 + 180;
#X obj 211 599 lop~ 3000;
#X connect 0 0 1 1;
#X connect 0 0 2 1;
#X connect 0 0 3 1;
#X connect 1 0 2 0;
#X connect 2 0 3 0;
#X connect 3 0 13 1;
#X connect 4 0 13 0;
#X connect 4 0 14 0;
#X connect 4 0 34 0;
#X connect 4 0 38 0;
#X connect 5 0 6 0;
#X connect 6 0 8 0;
#X connect 6 1 7 0;
#X connect 7 0 9 0;
#X connect 8 0 4 0;
#X connect 9 0 10 0;
#X connect 10 0 4 0;
#X connect 13 0 47 0;
#X connect 14 0 29 0;
#X connect 15 0 5 1;
#X connect 16 0 15 0;
#X connect 17 0 24 0;
#X connect 18 0 5 0;
#X connect 18 0 16 0;
#X connect 18 0 17 0;
#X connect 18 0 20 0;
#X connect 18 0 21 0;
#X connect 18 0 45 0;
#X connect 19 0 31 1;
#X connect 20 0 19 0;
#X connect 21 0 23 0;
#X connect 23 0 30 1;
#X connect 24 0 9 1;
#X connect 25 0 18 0;
#X connect 25 1 27 0;
#X connect 25 1 26 0;
#X connect 25 1 28 0;
#X connect 25 1 16 1;
#X connect 25 1 46 0;
#X connect 26 0 20 1;
#X connect 27 0 17 1;
#X connect 28 0 21 1;
#X connect 29 0 30 0;
#X connect 29 0 31 0;
#X connect 30 0 33 0;
#X connect 31 0 35 0;
#X connect 32 0 0 0;
#X connect 33 0 32 0;
#X connect 34 0 32 1;
#X connect 35 0 1 0;
#X connect 36 0 39 0;
#X connect 37 0 39 1;
#X connect 37 0 40 1;
#X connect 38 0 37 0;
#X connect 39 0 40 0;
#X connect 40 0 42 0;
#X connect 41 0 43 0;
#X connect 42 0 43 1;
#X connect 43 0 22 0;
#X connect 44 0 38 1;
#X connect 45 0 44 0;
#X connect 46 0 45 1;
#X connect 47 0 41 0;
