#N canvas 427 23 977 694 10;
#X obj 488 359 catch~ \$0-feedback;
#X obj 384 438 catch~ \$0-output;
#X obj 384 466 hip~ 10;
#X obj 488 383 hip~ 100;
#N canvas 855 331 338 547 sampler 0;
#X obj 91 189 openpanel;
#X obj 91 246 soundfiler;
#X obj 91 410 phasor~;
#X obj 91 437 *~;
#X obj 91 314 expr 1 / ( $f1 / 44100 );
#X obj 91 385 sig~;
#X obj 148 410 sig~;
#X obj 125 361 t 0;
#X obj 91 498 outlet~;
#X obj 188 28 bng 15 250 50 0 empty empty empty 17 7 0 10 -262144 -1
-1;
#X text 208 30 Play/Stop;
#X obj 28 437 snapshot~;
#X obj 91 361 f;
#X obj 269 28 tgl 15 0 empty empty empty 17 7 0 10 -262144 -1 -1 1
1;
#X obj 242 314 sel 1 0;
#X msg 28 461 set \$1;
#X text 156 30 Load;
#N canvas 0 22 450 278 (subpatch) 0;
#X array Sample_Loop_A 1.66879e+06 float 2;
#X coords 0 1 1.66879e+06 -1 256 64 2 0 0;
#X restore 28 46 graph;
#X obj 31 110 hsl 251 8 0 1 0 0 empty empty empty 0 0 0 10 -262144
-1 -1 2139 0;
#X obj 28 408 metro 20;
#X obj 91 155 t b 0;
#X msg 157 362 1;
#X msg 91 218 read -maxsize 1e+09 \$1 Sample_Loop_A;
#X obj 91 463 tabread4~ Sample_Loop_A;
#X connect 0 0 22 0;
#X connect 1 0 6 0;
#X connect 1 0 4 0;
#X connect 2 0 3 0;
#X connect 2 0 11 0;
#X connect 3 0 23 0;
#X connect 4 0 12 0;
#X connect 4 0 21 0;
#X connect 5 0 2 0;
#X connect 6 0 3 1;
#X connect 7 0 5 0;
#X connect 9 0 20 0;
#X connect 11 0 15 0;
#X connect 12 0 5 0;
#X connect 13 0 14 0;
#X connect 13 0 19 0;
#X connect 14 0 12 0;
#X connect 14 1 7 0;
#X connect 15 0 18 0;
#X connect 18 0 2 1;
#X connect 19 0 11 0;
#X connect 20 0 0 0;
#X connect 20 1 2 1;
#X connect 20 1 13 0;
#X connect 21 0 13 0;
#X connect 22 0 1 0;
#X connect 23 0 8 0;
#X coords 0 -1 1 1 262 96 2 25 25;
#X restore 384 127 pd sampler;
#N canvas 8 23 1348 855 delay 0;
#X obj 25 681 *~ 0;
#X obj 128 653 vsl 15 25 0 0.3 0 0 empty empty empty 17 8 0 10 -262144
-1 -1 700 1;
#X obj 2 599 tabread4~ \$0-thetape;
#X obj 2 563 wrap~;
#X obj 2 545 +~;
#X obj 2 527 r~ \$0-phase;
#X obj 25 717 throw~ \$0-feedback;
#X obj 2 699 throw~ \$0-output;
#X obj 2 581 *~ 88200;
#X obj 47 563 r mssample;
#X obj 128 403 loadbang;
#X obj 17 456 * 0.01;
#X obj 17 419 random 30;
#X obj 128 620 vsl 15 25 0 1 0 0 empty empty empty 17 8 0 10 -262144
-1 -1 2300 1;
#X obj 2 648 *~;
#X msg 128 599 1;
#X obj 17 438 + 60;
#X floatatom 350 95 10 0 0 0 - - -;
#X msg 109 142 0;
#X obj 41 175 tabwrite~ \$0-thetape;
#X obj 92 251 s~ \$0-phase;
#N canvas 0 23 450 300 loop 0;
#X floatatom 110 117 10 0 0 0 - - -;
#X obj 109 53 tgl 15 0 empty empty empty 17 7 0 10 -262144 -1 -1 1
1;
#X obj 110 73 metro 50;
#X obj 110 191 outlet;
#X obj 107 28 loadbang;
#X obj 168 72 inlet~;
#X obj 110 165 line;
#X obj 110 95 snapshot~ 1;
#X obj 110 144 pack 0 5;
#X connect 0 0 8 0;
#X connect 1 0 2 0;
#X connect 2 0 7 0;
#X connect 4 0 1 0;
#X connect 5 0 7 0;
#X connect 6 0 3 0;
#X connect 7 0 0 0;
#X connect 8 0 6 0;
#X restore 40 251 pd loop;
#X obj 199 223 s mssample;
#X floatatom 249 199 10 0 0 0 - - -;
#X obj 249 110 * 44.1;
#X obj 199 199 f;
#X obj 249 42 r \$0-tapespeed;
#X obj 40 271 s \$0-loopprogress;
#X obj 109 42 r \$0-recorderase;
#X obj 41 80 inlet~;
#X obj 163 103 bng 15 250 50 0 empty empty empty 17 7 0 10 -262144
-1 -1;
#X obj 249 64 expr 1000/$f1;
#X text 413 96 length;
#X obj 350 42 loadbang;
#X obj 597 101 tgl 25 0 \$0-recorderase empty Record/Erase 0 -5 0 10
-261234 -1 -1 0 1;
#X obj 600 141 hsl 128 15 0 1 0 0 empty \$0-loopprogress The_Tape_Loop
25 8 0 10 -144715 -262144 -262144 6147 1;
#X obj 761 85 loadbang;
#X obj 761 131 vsl 30 85 0.01 1 0 0 empty empty Tape_speed 33 25 0
10 -191407 -1 -1 509 1;
#X obj 17 491 pack 0 100;
#X obj 17 509 line;
#X obj 20 474 hsl 128 15 0 1 0 0 empty empty empty -2 -8 0 10 -262144
-1 -1 6590 1;
#X obj 190 681 *~ 0;
#X obj 293 653 vsl 15 25 0 0.3 0 0 empty empty empty 17 8 0 10 -262144
-1 -1 400 1;
#X obj 167 599 tabread4~ \$0-thetape;
#X obj 167 563 wrap~;
#X obj 167 545 +~;
#X obj 167 527 r~ \$0-phase;
#X obj 190 717 throw~ \$0-feedback;
#X obj 167 699 throw~ \$0-output;
#X obj 167 581 *~ 88200;
#X obj 212 563 r mssample;
#X obj 293 403 loadbang;
#X obj 182 456 * 0.01;
#X obj 182 419 random 30;
#X obj 293 620 vsl 15 25 0 1 0 0 empty empty empty 17 8 0 10 -262144
-1 -1 2400 1;
#X obj 167 648 *~;
#X msg 293 599 1;
#X obj 182 438 + 60;
#X obj 182 491 pack 0 100;
#X obj 182 509 line;
#X obj 185 474 hsl 128 15 0 1 0 0 empty empty empty -2 -8 0 10 -262144
-1 -1 4909 1;
#X obj 355 681 *~ 0;
#X obj 458 653 vsl 15 25 0 0.3 0 0 empty empty empty 17 8 0 10 -262144
-1 -1 700 1;
#X obj 332 599 tabread4~ \$0-thetape;
#X obj 332 563 wrap~;
#X obj 332 545 +~;
#X obj 332 527 r~ \$0-phase;
#X obj 355 717 throw~ \$0-feedback;
#X obj 332 699 throw~ \$0-output;
#X obj 332 581 *~ 88200;
#X obj 377 563 r mssample;
#X obj 458 403 loadbang;
#X obj 347 456 * 0.01;
#X obj 347 419 random 30;
#X obj 458 620 vsl 15 25 0 1 0 0 empty empty empty 17 8 0 10 -262144
-1 -1 2400 1;
#X obj 332 648 *~;
#X msg 458 599 1;
#X obj 347 438 + 60;
#X obj 347 491 pack 0 100;
#X obj 347 509 line;
#X obj 350 474 hsl 128 15 0 1 0 0 empty empty empty -2 -8 0 10 -262144
-1 -1 9144 1;
#X obj 520 681 *~ 0;
#X obj 623 653 vsl 15 25 0 0.3 0 0 empty empty empty 17 8 0 10 -262144
-1 -1 600 1;
#X obj 497 599 tabread4~ \$0-thetape;
#X obj 497 563 wrap~;
#X obj 497 545 +~;
#X obj 497 527 r~ \$0-phase;
#X obj 520 717 throw~ \$0-feedback;
#X obj 497 699 throw~ \$0-output;
#X obj 497 581 *~ 88200;
#X obj 542 563 r mssample;
#X obj 623 403 loadbang;
#X obj 512 456 * 0.01;
#X obj 512 419 random 30;
#X obj 623 620 vsl 15 25 0 1 0 0 empty empty empty 17 8 0 10 -262144
-1 -1 2400 1;
#X obj 497 648 *~;
#X msg 623 599 1;
#X obj 512 438 + 60;
#X obj 512 491 pack 0 100;
#X obj 512 509 line;
#X obj 515 474 hsl 128 15 0 1 0 0 empty empty empty -2 -8 0 10 -262144
-1 -1 8636 1;
#X obj 686 681 *~ 0;
#X obj 789 653 vsl 15 25 0 0.3 0 0 empty empty empty 17 8 0 10 -262144
-1 -1 600 1;
#X obj 663 599 tabread4~ \$0-thetape;
#X obj 663 563 wrap~;
#X obj 663 545 +~;
#X obj 663 527 r~ \$0-phase;
#X obj 686 717 throw~ \$0-feedback;
#X obj 663 699 throw~ \$0-output;
#X obj 663 581 *~ 88200;
#X obj 708 563 r mssample;
#X obj 789 403 loadbang;
#X obj 678 456 * 0.01;
#X obj 678 419 random 30;
#X obj 789 620 vsl 15 25 0 1 0 0 empty empty empty 17 8 0 10 -262144
-1 -1 2400 1;
#X obj 663 648 *~;
#X msg 789 599 1;
#X obj 678 438 + 60;
#X obj 678 491 pack 0 100;
#X obj 678 509 line;
#X obj 681 474 hsl 128 15 0 1 0 0 empty empty empty -2 -8 0 10 -262144
-1 -1 9398 1;
#X obj 851 681 *~ 0;
#X obj 954 653 vsl 15 25 0 0.3 0 0 empty empty empty 17 8 0 10 -262144
-1 -1 300 1;
#X obj 828 599 tabread4~ \$0-thetape;
#X obj 828 563 wrap~;
#X obj 828 545 +~;
#X obj 828 527 r~ \$0-phase;
#X obj 851 717 throw~ \$0-feedback;
#X obj 828 699 throw~ \$0-output;
#X obj 828 581 *~ 88200;
#X obj 873 563 r mssample;
#X obj 954 403 loadbang;
#X obj 843 456 * 0.01;
#X obj 843 419 random 30;
#X obj 954 620 vsl 15 25 0 1 0 0 empty empty empty 17 8 0 10 -262144
-1 -1 2400 1;
#X obj 828 648 *~;
#X msg 954 599 1;
#X obj 843 438 + 60;
#X obj 843 491 pack 0 100;
#X obj 843 509 line;
#X obj 846 474 hsl 128 15 0 1 0 0 empty empty empty -2 -8 0 10 -262144
-1 -1 10541 1;
#X obj 1016 681 *~ 0;
#X obj 1119 653 vsl 15 25 0 0.3 0 0 empty empty empty 17 8 0 10 -262144
-1 -1 400 1;
#X obj 993 599 tabread4~ \$0-thetape;
#X obj 993 563 wrap~;
#X obj 993 545 +~;
#X obj 993 527 r~ \$0-phase;
#X obj 1016 717 throw~ \$0-feedback;
#X obj 993 699 throw~ \$0-output;
#X obj 993 581 *~ 88200;
#X obj 1038 563 r mssample;
#X obj 1119 403 loadbang;
#X obj 1008 456 * 0.01;
#X obj 1008 419 random 30;
#X obj 1119 620 vsl 15 25 0 1 0 0 empty empty empty 17 8 0 10 -262144
-1 -1 2400 1;
#X obj 993 648 *~;
#X msg 1119 599 1;
#X obj 1008 438 + 60;
#X obj 1008 491 pack 0 100;
#X obj 1008 509 line;
#X obj 1011 474 hsl 128 15 0 1 0 0 empty empty empty -2 -8 0 10 -262144
-1 -1 7620 1;
#X obj 1181 681 *~ 0;
#X obj 1284 653 vsl 15 25 0 0.3 0 0 empty empty empty 17 8 0 10 -262144
-1 -1 2400 1;
#X obj 1158 599 tabread4~ \$0-thetape;
#X obj 1158 563 wrap~;
#X obj 1158 545 +~;
#X obj 1158 527 r~ \$0-phase;
#X obj 1181 717 throw~ \$0-feedback;
#X obj 1158 699 throw~ \$0-output;
#X obj 1158 581 *~ 88200;
#X obj 1203 563 r mssample;
#X obj 1284 403 loadbang;
#X obj 1173 456 * 0.01;
#X obj 1173 419 random 30;
#X obj 1284 620 vsl 15 25 0 1 0 0 empty empty empty 17 8 0 10 -262144
-1 -1 2400 1;
#X obj 1158 648 *~;
#X msg 1284 599 1;
#X obj 1173 438 + 60;
#X obj 1173 491 pack 0 100;
#X obj 1173 509 line;
#X obj 1176 474 hsl 128 15 0 1 0 0 empty empty empty -2 -8 0 10 -262144
-1 -1 7874 1;
#X obj 350 65 f 20000;
#X obj 109 80 metro 20000;
#X obj 40 231 phasor~ 0.05;
#X msg 761 109 0.05;
#X obj 760 48 table \$0-thetape 60000;
#X obj 761 259 s \$0-tapespeed;
#X obj 761 240 line;
#X obj 597 2 bng 15 250 50 0 empty empty empty 17 7 0 10 -262144 -1
-1;
#X obj 597 42 sel 0;
#X obj 904 142 / 100;
#X obj 904 178 + 0.01;
#X obj 904 97 random 100;
#X obj 761 221 pack 0 500;
#X obj 597 22 random 2;
#X connect 0 0 6 0;
#X connect 1 0 0 1;
#X connect 2 0 0 0;
#X connect 2 0 14 0;
#X connect 3 0 8 0;
#X connect 4 0 3 0;
#X connect 5 0 4 0;
#X connect 8 0 2 0;
#X connect 9 0 8 1;
#X connect 10 0 12 0;
#X connect 10 0 15 0;
#X connect 11 0 40 0;
#X connect 12 0 16 0;
#X connect 13 0 14 1;
#X connect 14 0 7 0;
#X connect 15 0 13 0;
#X connect 16 0 11 0;
#X connect 17 0 24 0;
#X connect 17 0 182 1;
#X connect 18 0 183 1;
#X connect 21 0 27 0;
#X connect 24 0 23 0;
#X connect 24 0 25 1;
#X connect 25 0 22 0;
#X connect 26 0 31 0;
#X connect 26 0 183 0;
#X connect 28 0 182 0;
#X connect 29 0 19 0;
#X connect 31 0 24 0;
#X connect 31 0 182 1;
#X connect 33 0 181 0;
#X connect 36 0 34 0;
#X connect 36 0 184 0;
#X connect 37 0 193 0;
#X connect 38 0 39 0;
#X connect 39 0 4 1;
#X connect 40 0 38 0;
#X connect 41 0 47 0;
#X connect 42 0 41 1;
#X connect 43 0 41 0;
#X connect 43 0 55 0;
#X connect 44 0 49 0;
#X connect 45 0 44 0;
#X connect 46 0 45 0;
#X connect 49 0 43 0;
#X connect 50 0 49 1;
#X connect 51 0 53 0;
#X connect 51 0 56 0;
#X connect 52 0 60 0;
#X connect 53 0 57 0;
#X connect 54 0 55 1;
#X connect 55 0 48 0;
#X connect 56 0 54 0;
#X connect 57 0 52 0;
#X connect 58 0 59 0;
#X connect 59 0 45 1;
#X connect 60 0 58 0;
#X connect 61 0 67 0;
#X connect 62 0 61 1;
#X connect 63 0 61 0;
#X connect 63 0 75 0;
#X connect 64 0 69 0;
#X connect 65 0 64 0;
#X connect 66 0 65 0;
#X connect 69 0 63 0;
#X connect 70 0 69 1;
#X connect 71 0 73 0;
#X connect 71 0 76 0;
#X connect 72 0 80 0;
#X connect 73 0 77 0;
#X connect 74 0 75 1;
#X connect 75 0 68 0;
#X connect 76 0 74 0;
#X connect 77 0 72 0;
#X connect 78 0 79 0;
#X connect 79 0 65 1;
#X connect 80 0 78 0;
#X connect 81 0 87 0;
#X connect 82 0 81 1;
#X connect 83 0 81 0;
#X connect 83 0 95 0;
#X connect 84 0 89 0;
#X connect 85 0 84 0;
#X connect 86 0 85 0;
#X connect 89 0 83 0;
#X connect 90 0 89 1;
#X connect 91 0 93 0;
#X connect 91 0 96 0;
#X connect 92 0 100 0;
#X connect 93 0 97 0;
#X connect 94 0 95 1;
#X connect 95 0 88 0;
#X connect 96 0 94 0;
#X connect 97 0 92 0;
#X connect 98 0 99 0;
#X connect 99 0 85 1;
#X connect 100 0 98 0;
#X connect 101 0 107 0;
#X connect 102 0 101 1;
#X connect 103 0 101 0;
#X connect 103 0 115 0;
#X connect 104 0 109 0;
#X connect 105 0 104 0;
#X connect 106 0 105 0;
#X connect 109 0 103 0;
#X connect 110 0 109 1;
#X connect 111 0 113 0;
#X connect 111 0 116 0;
#X connect 112 0 120 0;
#X connect 113 0 117 0;
#X connect 114 0 115 1;
#X connect 115 0 108 0;
#X connect 116 0 114 0;
#X connect 117 0 112 0;
#X connect 118 0 119 0;
#X connect 119 0 105 1;
#X connect 120 0 118 0;
#X connect 121 0 127 0;
#X connect 122 0 121 1;
#X connect 123 0 121 0;
#X connect 123 0 135 0;
#X connect 124 0 129 0;
#X connect 125 0 124 0;
#X connect 126 0 125 0;
#X connect 129 0 123 0;
#X connect 130 0 129 1;
#X connect 131 0 133 0;
#X connect 131 0 136 0;
#X connect 132 0 140 0;
#X connect 133 0 137 0;
#X connect 134 0 135 1;
#X connect 135 0 128 0;
#X connect 136 0 134 0;
#X connect 137 0 132 0;
#X connect 138 0 139 0;
#X connect 139 0 125 1;
#X connect 140 0 138 0;
#X connect 141 0 147 0;
#X connect 142 0 141 1;
#X connect 143 0 141 0;
#X connect 143 0 155 0;
#X connect 144 0 149 0;
#X connect 145 0 144 0;
#X connect 146 0 145 0;
#X connect 149 0 143 0;
#X connect 150 0 149 1;
#X connect 151 0 153 0;
#X connect 151 0 156 0;
#X connect 152 0 160 0;
#X connect 153 0 157 0;
#X connect 154 0 155 1;
#X connect 155 0 148 0;
#X connect 156 0 154 0;
#X connect 157 0 152 0;
#X connect 158 0 159 0;
#X connect 159 0 145 1;
#X connect 160 0 158 0;
#X connect 161 0 167 0;
#X connect 162 0 161 1;
#X connect 163 0 161 0;
#X connect 163 0 175 0;
#X connect 164 0 169 0;
#X connect 165 0 164 0;
#X connect 166 0 165 0;
#X connect 169 0 163 0;
#X connect 170 0 169 1;
#X connect 171 0 173 0;
#X connect 171 0 176 0;
#X connect 172 0 180 0;
#X connect 173 0 177 0;
#X connect 174 0 175 1;
#X connect 175 0 168 0;
#X connect 176 0 174 0;
#X connect 177 0 172 0;
#X connect 178 0 179 0;
#X connect 179 0 165 1;
#X connect 180 0 178 0;
#X connect 181 0 17 0;
#X connect 182 0 18 0;
#X connect 182 0 19 0;
#X connect 182 0 25 0;
#X connect 182 0 30 0;
#X connect 182 0 188 0;
#X connect 183 0 20 0;
#X connect 183 0 21 0;
#X connect 184 0 37 0;
#X connect 187 0 186 0;
#X connect 188 0 192 0;
#X connect 188 0 194 0;
#X connect 189 0 34 0;
#X connect 190 0 191 0;
#X connect 191 0 37 0;
#X connect 192 0 190 0;
#X connect 193 0 187 0;
#X connect 194 0 189 0;
#X coords 0 855 1 854 320 30 0;
#X restore 384 399 pd delay;
#X obj 384 550 freeverb~;
#X obj 384 575 freeverb~;
#X msg 777 534 roomsize \$1;
#X msg 702 534 damping \$1;
#X obj 777 426 random 100;
#X obj 777 448 / 100;
#X obj 777 311 bng 15 250 50 0 empty empty empty 17 7 0 10 -262144
-1 -1;
#X obj 777 491 line;
#X obj 702 426 random 100;
#X obj 702 448 / 100;
#X obj 702 491 line;
#X msg 887 534 wet 1;
#X obj 1010 518 loadbang;
#X msg 936 534 dry 0;
#X obj 702 470 pack 0 1000;
#X obj 777 470 pack 0 1000;
#X obj 335 615 dac~ 1;
#X obj 777 218 loadbang;
#X obj 777 249 metro 10000;
#X obj 888 204 random 10000;
#X obj 888 233 + 1000;
#X obj 384 500 /~ 10;
#X obj 384 599 /~ 7;
#X connect 0 0 3 0;
#X connect 1 0 2 0;
#X connect 2 0 27 0;
#X connect 3 0 5 0;
#X connect 4 0 5 0;
#X connect 6 0 7 0;
#X connect 7 0 28 0;
#X connect 8 0 6 0;
#X connect 8 0 7 0;
#X connect 9 0 6 0;
#X connect 9 0 7 0;
#X connect 10 0 11 0;
#X connect 11 0 21 0;
#X connect 12 0 10 0;
#X connect 12 0 14 0;
#X connect 13 0 8 0;
#X connect 14 0 15 0;
#X connect 15 0 20 0;
#X connect 16 0 9 0;
#X connect 17 0 6 0;
#X connect 17 0 7 0;
#X connect 18 0 17 0;
#X connect 18 0 19 0;
#X connect 19 0 6 0;
#X connect 19 0 7 0;
#X connect 20 0 16 0;
#X connect 21 0 13 0;
#X connect 23 0 24 0;
#X connect 24 0 12 0;
#X connect 24 0 25 0;
#X connect 25 0 26 0;
#X connect 26 0 24 1;
#X connect 27 0 6 0;
#X connect 27 0 22 0;
#X connect 28 0 22 0;
